# xmcd CD database file
#
# Track frame offsets:
#	150
#	20332
#	41580
#	66865
#	90730
#	113035
#	132820
#	157007
#	168540
#	184272
#	205367
#	227017
#	245417
#	270997
#
# Disc length: 3854 seconds
#
# Revision: 0
# Processed by: cddbd v1.5PL3 Copyright (c) Steve Scherf et al.
# Submitted via: CDex 1.40Release
#
DISCID=bc0f0c0e
DTITLE=Overrocket - Pop Music
DYEAR=2003
DGENRE=Techno
TTITLE0=Listen and Repeat
TTITLE1=Handsome Boy
TTITLE2=Duralumin
TTITLE3=Magic Parasol
TTITLE4=Pop Music
TTITLE5=The Sky Still Seems Small
TTITLE6=Shadow of the Sun
TTITLE7=Night is Over
TTITLE8=Phosphor
TTITLE9=Tsuyu
TTITLE10=Sands
TTITLE11=Eyecontact
TTITLE12=Yume De Aimashou
TTITLE13=Storm will Crear the Air
EXTD=YEAR: 2003 ID3G: 18
EXTT0=
EXTT1=
EXTT2=
EXTT3=
EXTT4=
EXTT5=
EXTT6=
EXTT7=
EXTT8=
EXTT9=
EXTT10=
EXTT11=
EXTT12=
EXTT13=
PLAYORDER=
